<svg xmlns="http://www.w3.org/2000/svg" width="32" height="32" fill="none"><g fill="#0165C3" clip-path="url(#a)"><path d="M31 14h-3.54L18.832 3.95c.1-.3.168-.616.168-.95 0-1.654-1.346-3-3-3s-3 1.346-3 3c0 .334.068.65.168.95L4.54 14H1a1 1 0 0 0-1 1v16a1 1 0 0 0 1 1h30a1 1 0 0 0 1-1V15a1 1 0 0 0-1-1ZM16 2a1 1 0 1 1 0 2 1 1 0 0 1 0-2Zm-1.566 3.546c.456.282.99.454 1.566.454.576 0 1.11-.172 1.566-.454L24.824 14H7.176l7.258-8.454ZM30 30H2V16h28v14Z"/><path d="M9 26H6v-1a1 1 0 0 1 1-1c1.654 0 3-1.346 3-3s-1.346-3-3-3H5a1 1 0 0 0 0 2h2a1 1 0 0 1 0 2c-1.654 0-3 1.346-3 3v2a1 1 0 0 0 1 1h4a1 1 0 0 0 0-2ZM17 18a1 1 0 0 0-1 1v3h-2v-3a1 1 0 0 0-2 0v4a1 1 0 0 0 1 1h3v3a1 1 0 0 0 2 0v-8a1 1 0 0 0-1-1ZM27 18a1 1 0 0 0-1 1v3h-2v-3a1 1 0 0 0-2 0v8a1 1 0 0 0 2 0v-3h2v3a1 1 0 0 0 2 0v-8a1 1 0 0 0-1-1Z"/></g><defs><clipPath id="a"><path fill="#fff" d="M0 0h32v32H0z"/></clipPath></defs></svg>