<svg xmlns="http://www.w3.org/2000/svg" width="32" height="32" fill="none"><path fill="#EFD357" d="M19 22h-6a1 1 0 0 0 0 2h6a1 1 0 0 0 0-2Z"/><path fill="#EFD357" d="M31 9h-5.382l-3.724-7.448a1.003 1.003 0 0 0-1.342-.448 1.002 1.002 0 0 0-.448 1.342L23.382 9H8.618l3.276-6.552a1 1 0 0 0-1.788-.896L6.382 9H1a1 1 0 0 0-1 1v4a1 1 0 0 0 1 1h1.218l3.81 15.242c.112.446.514.758.972.758h18c.458 0 .86-.312.97-.758L29.782 15H31a1 1 0 0 0 1-1v-4a1 1 0 0 0-1-1Zm-6.782 20H7.782l-3.5-14H27.72l-3.502 14ZM30 13H2v-2h28v2Z"/></svg>