<svg xmlns="http://www.w3.org/2000/svg" width="35" height="35" fill="none"><path fill="#64A7AE" d="M33.906 21.875c-.603 0-1.093.49-1.093 1.093v7.657H2.186V17.5H14.22a1.094 1.094 0 0 0 0-2.188H2.188v-4.375h12.03a1.094 1.094 0 0 0 0-2.187H2.189C.98 8.75 0 9.73 0 10.937v19.688c0 1.207.98 2.187 2.188 2.187h30.625c1.207 0 2.187-.98 2.187-2.187v-7.657c0-.603-.49-1.093-1.094-1.093Z"/><path fill="#64A7AE" d="M9.844 21.875H5.469a1.094 1.094 0 0 0 0 2.187h4.375a1.094 1.094 0 0 0 0-2.187ZM34.337 5.556l-7.656-3.281a1.117 1.117 0 0 0-.864 0L18.16 5.556c-.4.173-.661.569-.661 1.006v4.375c0 6.018 2.225 9.536 8.205 12.98a1.097 1.097 0 0 0 1.09 0C32.775 20.482 35 16.965 35 10.938V6.562c0-.437-.26-.833-.663-1.006Zm-1.525 5.381c0 5.051-1.67 7.832-6.562 10.763-4.891-2.938-6.563-5.718-6.563-10.763V7.284l6.563-2.813 6.563 2.813v3.653Z"/><path fill="#64A7AE" d="M30.216 8.988a1.101 1.101 0 0 0-1.538.17L25.24 13.46l-1.361-2.034a1.097 1.097 0 0 0-1.516-.304 1.095 1.095 0 0 0-.304 1.516l2.188 3.28c.194.292.514.471.864.489h.046c.33 0 .645-.149.855-.411l4.375-5.47a1.095 1.095 0 0 0-.17-1.537Z"/></svg>