<svg xmlns="http://www.w3.org/2000/svg" width="140" height="67" fill="none"><path fill="#ABAFB8" d="M26.783 19.49C25.245 17.746 22.46 17 18.898 17H8.561c-.728 0-1.347.526-1.462 1.238L2.794 45.32a.883.883 0 0 0 .877 1.017h6.381l1.603-10.086-.05.318a1.473 1.473 0 0 1 1.458-1.238h3.032c5.959 0 10.622-2.4 11.986-9.345.04-.206.105-.602.105-.602.387-2.57-.002-4.313-1.403-5.895Z"/><path fill="#ABAFB8" d="M29.8 26.7c-1.48 6.837-6.206 10.455-13.705 10.455h-2.718L11.347 50h4.41c.637 0 1.18-.46 1.279-1.085l.051-.272 1.015-6.375.066-.35a1.29 1.29 0 0 1 1.277-1.086h.806c5.212 0 9.292-2.1 10.484-8.174.478-2.437.247-4.481-.934-5.958Zm21.026 10.34c4.29 0 7.47-3.12 7.47-7.17s-3.18-7.17-7.47-7.17h-7.08V44h4.35v-6.96h2.73Zm-.06-10.26c1.95 0 3.3 1.32 3.3 3.09 0 1.77-1.35 3.09-3.3 3.09h-2.67v-6.18h2.67ZM70.905 44h4.11V29h-4.11v1.68c-.75-1.08-2.4-2.01-4.32-2.01-3.87-.09-7.14 3.66-7.05 7.83-.09 4.17 3.18 7.92 7.05 7.83 1.92 0 3.57-.93 4.32-2.01V44Zm-7.23-7.5c0-2.37 1.53-4.08 3.78-4.08s3.78 1.71 3.78 4.08-1.53 4.08-3.78 4.08-3.78-1.71-3.78-4.08ZM89.6 29l-3.99 9.72L81.59 29h-4.5l6.3 14.16-3.15 7.11h4.47L94.13 29H89.6Zm10.63 13.32c.75 1.08 2.43 2.01 4.35 2.01 3.87.09 7.14-3.66 7.05-7.83.09-4.17-3.18-7.92-7.05-7.83-1.92 0-3.6.93-4.35 2.01V29h-4.11v21.27h4.11v-7.95Zm-.33-5.82c0-2.37 1.53-4.08 3.78-4.08s3.78 1.71 3.78 4.08-1.53 4.08-3.78 4.08-3.78-1.71-3.78-4.08Zm25.145 7.5h4.11V29h-4.11v1.68c-.75-1.08-2.4-2.01-4.32-2.01-3.87-.09-7.14 3.66-7.05 7.83-.09 4.17 3.18 7.92 7.05 7.83 1.92 0 3.57-.93 4.32-2.01V44Zm-7.23-7.5c0-2.37 1.53-4.08 3.78-4.08s3.78 1.71 3.78 4.08-1.53 4.08-3.78 4.08-3.78-1.71-3.78-4.08Zm15.336-15V44h4.11V21.5h-4.11Z"/></svg>