<svg xmlns="http://www.w3.org/2000/svg" width="33" height="32" fill="none"><path fill="#DDD" fill-rule="evenodd" d="M16.667 0c-8.837 0-16 7.163-16 16s7.163 16 16 16c8.836 0 16-7.163 16-16s-7.164-16-16-16Zm-.446 13.558-.034-.553c-.1-1.435.784-2.746 2.183-3.254.515-.181 1.388-.204 1.958-.046.224.068.65.294.952.498l.548.372.604-.192c.336-.101.784-.27.985-.384.19-.102.358-.158.358-.124 0 .192-.414.847-.76 1.209-.47.508-.336.553.615.215.57-.193.582-.193.47.022-.067.113-.414.508-.783.87-.627.621-.66.69-.66 1.21 0 .801-.381 2.473-.762 3.389-.705 1.717-2.216 3.491-3.727 4.384-2.126 1.254-4.957 1.57-7.341.836-.795-.249-2.16-.882-2.16-.995 0-.034.414-.079.917-.09a6.302 6.302 0 0 0 3-.836l.604-.362-.694-.237c-.985-.339-1.869-1.118-2.093-1.853-.067-.237-.044-.248.582-.248l.65-.012-.549-.26c-.649-.327-1.242-.881-1.533-1.446-.213-.407-.481-1.435-.403-1.514.022-.034.257.034.526.124.772.283.873.215.425-.26-.84-.858-1.097-2.135-.694-3.344l.19-.542.74.734c1.51 1.48 3.29 2.362 5.326 2.622l.56.067Z" clip-rule="evenodd"/></svg>