<svg xmlns="http://www.w3.org/2000/svg" width="33" height="32" fill="none"><path fill="#DDD" fill-rule="evenodd" d="M16.333 0c-8.836 0-16 7.163-16 16s7.164 16 16 16c8.837 0 16-7.163 16-16s-7.163-16-16-16Zm-3.517 7.518c.91-.041 1.2-.051 3.518-.051h-.002c2.318 0 2.608.01 3.518.051.908.042 1.529.186 2.073.397a4.17 4.17 0 0 1 1.51.984c.476.474.767.95.986 1.512.21.542.354 1.162.396 2.07.041.91.052 1.202.052 3.52 0 2.317-.01 2.607-.052 3.517-.042.908-.186 1.529-.396 2.071a4.19 4.19 0 0 1-.985 1.512c-.474.474-.95.767-1.51.985-.544.21-1.164.355-2.073.396-.91.041-1.2.052-3.518.052-2.317 0-2.608-.01-3.518-.052-.908-.041-1.529-.185-2.072-.396a4.178 4.178 0 0 1-1.51-.985 4.181 4.181 0 0 1-.985-1.512c-.21-.542-.355-1.163-.396-2.071-.042-.91-.052-1.2-.052-3.518 0-2.317.01-2.608.052-3.519.04-.908.184-1.528.396-2.07.219-.562.51-1.038.985-1.512.474-.475.95-.766 1.511-.984.543-.211 1.163-.355 2.072-.397Z" clip-rule="evenodd"/><path fill="#DDD" fill-rule="evenodd" d="M15.569 9.004H16.334c2.279 0 2.549.008 3.448.05.832.037 1.284.176 1.585.293.398.155.682.34.98.638.3.299.484.583.64.982.116.3.255.752.293 1.584.04.9.05 1.17.05 3.447s-.01 2.547-.05 3.447c-.038.832-.177 1.284-.294 1.584-.155.398-.34.682-.639.98a2.637 2.637 0 0 1-.98.638c-.3.118-.753.256-1.585.295-.899.04-1.17.05-3.448.05s-2.548-.01-3.448-.05c-.832-.039-1.284-.178-1.584-.295a2.642 2.642 0 0 1-.982-.638 2.644 2.644 0 0 1-.638-.98c-.117-.301-.256-.753-.294-1.585-.041-.9-.05-1.17-.05-3.448 0-2.28.009-2.548.05-3.447.038-.832.177-1.284.294-1.585.154-.398.34-.683.638-.981.299-.299.583-.484.982-.639.3-.117.752-.256 1.584-.294.787-.036 1.092-.046 2.683-.048v.002Zm5.32 1.417a1.024 1.024 0 1 0 0 2.048 1.024 1.024 0 0 0 0-2.049Zm-8.937 5.578a4.382 4.382 0 1 1 8.765 0 4.382 4.382 0 0 1-8.765 0Z" clip-rule="evenodd"/><path fill="#DDD" fill-rule="evenodd" d="M16.334 13.155a2.844 2.844 0 1 1 0 5.69 2.844 2.844 0 0 1 0-5.69Z" clip-rule="evenodd"/></svg>